<?xml version="1.0" encoding="UTF-8"?>
<svg xmlns="http://www.w3.org/2000/svg" width="47.581" height="59.179" viewBox="0 0 47.581 59.179">
  <g id="files" transform="translate(-6.247 -0.427)">
    <path id="Pfad_235" data-name="Pfad 235" d="M45.162,49.481a.5.5,0,0,1-.318-.885l3.2-2.646-3.783,2.184a.5.5,0,0,1-.559-.826l3.424-2.688-3.874,2.236a.5.5,0,0,1-.561-.824l4.677-3.716L42.08,45.37a.5.5,0,0,1-.548-.834l4.2-3.12L41.078,44.1a.5.5,0,0,1-.546-.836l4.722-3.458-5.2,3a.5.5,0,0,1-.55-.833l6.4-4.788-7.071,4.082a.5.5,0,0,1-.545-.836l6.938-5.081-7.6,4.388a.5.5,0,0,1-.54-.84l7-4.985L36.5,38.3a.5.5,0,0,1-.524-.851l2.267-1.49-2.467,1.424a.5.5,0,0,1-.538-.842l8.3-5.834-8.95,5.167a.5.5,0,0,1-.535-.843l8.92-6.209-9.584,5.533a.5.5,0,0,1-.526-.849l6.126-4.053-6.505,3.756a.5.5,0,0,1-.534-.845l10.287-7.073-11,6.35a.5.5,0,0,1-.522-.852l6.207-4.038-6.557,3.785a.5.5,0,0,1-.526-.849l9.369-6.21-9.9,5.716a.5.5,0,0,1-.52-.853l5.778-3.706-6.085,3.512a.5.5,0,0,1-.515-.856l.957-.6-1.094.631a.5.5,0,0,1-.529-.847L38.64,18.849l-12.023,6.94a.5.5,0,0,1-.523-.851l8.3-5.419-8.743,5.046a.5.5,0,0,1-.517-.855l2.944-1.863L24.937,23.66a.5.5,0,0,1-.52-.853l4.93-3.154-5.2,3a.5.5,0,0,1-.529-.847l10.4-6.961L23,21.207a.5.5,0,0,1-.518-.855l2.49-1.575L22.3,20.319a.5.5,0,0,1-.517-.855L22.527,19l-.876.5a.5.5,0,0,1-.524-.851l8.123-5.332-8.573,4.95a.5.5,0,0,1-.53-.848l10.34-6.964L19.512,16.791A.5.5,0,0,1,19,15.935l.152-.1-.267.154a.5.5,0,0,1-.518-.855l1.873-1.187L18.2,15.128a.5.5,0,0,1-.529-.848l8.138-5.467-8.652,4.995a.5.5,0,0,1-.536-.843l8.153-5.694L16,12.338a.5.5,0,0,1-.529-.848l4.207-2.836-4.4,2.536a.5.5,0,0,1-.525-.849l.8-.528-.274.158a.5.5,0,0,1-.534-.844l2.1-1.445-1.561.9a.5.5,0,0,1-.573-.814L18.86,4.253,15.28,6.319a.5.5,0,0,1-.587-.8L16.6,3.775,15.28,4.54a.5.5,0,0,1-.673-.7l.872-1.376a.5.5,0,0,1-.412-.906L16.726.6a.5.5,0,0,1,.672.7l-.86,1.358L20.108.6a.5.5,0,0,1,.587.8L18.783,3.143,23.191.6a.5.5,0,0,1,.574.814L19.609,4.929,27.112.6a.5.5,0,0,1,.534.843L25.553,2.887,29.518.6a.5.5,0,0,1,.525.849l-.789.522L31.629.6a.5.5,0,0,1,.529.847L27.951,4.28,34.331.6a.5.5,0,0,1,.536.842l-8.154,5.7L38.037.6a.5.5,0,0,1,.529.847L30.433,6.91l10.388-6a.5.5,0,0,1,.518.856L39.461,2.957l2.306-1.331a.5.5,0,0,1,.515.856l-.159.1.38-.219a.5.5,0,0,1,.529.848L32.689,10.178,43.865,3.726a.5.5,0,0,1,.525.85L36.274,9.9,45,4.863a.5.5,0,1,1,.517.856l-.758.476,1-.575a.5.5,0,0,1,.517.856L43.791,8.049l2.788-1.61a.5.5,0,0,1,.528.848L36.7,14.251,47.918,7.777a.5.5,0,0,1,.519.854L43.514,11.78l5.33-3.08a.5.5,0,1,1,.517.856l-2.944,1.863,3.262-1.883a.5.5,0,0,1,.523.852L41.9,15.81l8.906-5.142a.5.5,0,0,1,.529.848L40,19.14l12.178-7.032a.5.5,0,1,1,.515.857l-.964.6.892-.514a.5.5,0,0,1,.52.853l-5.785,3.71,5.365-3.1a.5.5,0,0,1,.526.85l-9.369,6.21,8.843-5.1a.5.5,0,0,1,.522.851l-6.2,4.034,5.68-3.278a.5.5,0,0,1,.533.845L42.966,26l9.757-5.633a.5.5,0,0,1,.525.85L47.124,25.27l5.6-3.232a.5.5,0,0,1,.535.843l-8.92,6.209,8.385-4.841a.5.5,0,0,1,.538.842l-8.3,5.834,7.758-4.479a.5.5,0,0,1,.524.851l-2.259,1.484,1.735-1a.5.5,0,0,1,.54.84l-7.006,4.985,6.466-3.732a.5.5,0,0,1,.545.836l-6.941,5.082,6.4-3.692a.5.5,0,0,1,.55.833l-6.4,4.786,5.853-3.379a.5.5,0,0,1,.546.836l-4.722,3.458,4.176-2.41a.5.5,0,0,1,.548.834l-4.206,3.125,3.658-2.111a.5.5,0,0,1,.56.824L48.613,42.61l4.114-2.375a.5.5,0,0,1,.558.826L49.86,43.75l2.86-1.65a.5.5,0,0,1,.568.818l-3.2,2.645,2.632-1.52a.5.5,0,0,1,.613.776l-1.9,2.008,1.287-.743a.5.5,0,0,1,.62.769l-.4.446a.5.5,0,0,1,.117.915L50.989,49.4a.5.5,0,0,1-.62-.768l.078-.087-1.488.859a.5.5,0,0,1-.613-.776l1.9-2.008-4.834,2.791a.491.491,0,0,1-.25.07Z" fill="#585858"></path>
    <path id="Pfad_236" data-name="Pfad 236" d="M16.291,59.47a.5.5,0,0,1-.264-.925L18.351,57.1l-3.986,2.3a.5.5,0,0,1-.516-.855l8.471-5.328L11.609,59.4a.5.5,0,0,1-.518-.854l14.273-9.093L8.444,59.224a.5.5,0,1,1-.514-.858L19.43,51.2,7.416,58.138A.5.5,0,0,1,6.9,57.28l12.126-7.545L7.28,56.517a.5.5,0,1,1-.517-.856L23.58,45.032,7.28,54.443a.5.5,0,0,1-.515-.856l14.619-9.164L7.28,52.565a.5.5,0,0,1-.516-.855L22.817,41.6,7.28,50.564a.5.5,0,0,1-.518-.854L25.315,37.894,7.28,48.306a.5.5,0,0,1-.518-.855L25.107,35.776,7.28,46.068a.5.5,0,0,1-.511-.858l6.724-4.136L7.28,44.661a.5.5,0,0,1-.515-.856l13.262-8.321L7.28,42.844a.5.5,0,1,1-.51-.86l2.405-1.472-1.9,1.093a.5.5,0,0,1-.515-.856l11.2-7.024L7.28,39.9a.5.5,0,0,1-.512-.859L11.209,36.3,7.28,38.565a.5.5,0,0,1-.514-.856l7.6-4.736L7.28,37.062a.5.5,0,0,1-.511-.859l1.85-1.14-1.339.773a.5.5,0,1,1-.52-.854l13.158-8.465L7.28,33.813a.5.5,0,0,1-.517-.856l9-5.7-8.483,4.9a.5.5,0,0,1-.525-.85l13.932-9.175L7.28,29.867a.5.5,0,0,1-.524-.85l12.153-7.976L7.28,27.755a.5.5,0,0,1-.523-.852l9.527-6.213-9,5.2a.5.5,0,0,1-.516-.856l1.106-.7-.59.34a.5.5,0,0,1-.536-.843l9.377-6.546L7.28,22.392a.5.5,0,0,1-.531-.846l4.8-3.262L7.28,20.748a.5.5,0,0,1-.535-.843l3.542-2.461L7.28,19.18a.5.5,0,0,1-.539-.841l2.1-1.485-1.558.9a.5.5,0,0,1-.575-.813l3.244-2.78L7.28,15.7a.5.5,0,0,1-.58-.807l1.039-.915-.459.264a.5.5,0,0,1-.659-.72l.725-1.035a.468.468,0,0,1-.461-.249.5.5,0,0,1,.182-.682L8.726,10.6a.5.5,0,0,1,.659.719l-.652.931L11.6,10.6a.5.5,0,0,1,.58.807l-1.038.914L14.121,10.6a.5.5,0,0,1,.575.812l-3.244,2.78L17.675,10.6a.5.5,0,0,1,.539.84l-2.1,1.486,4.03-2.326a.5.5,0,0,1,.536.842L17.139,13.9l5.724-3.3a.5.5,0,0,1,.532.845L18.6,14.7l7.109-4.1a.5.5,0,0,1,.536.842l-9.379,6.547,12.8-7.389a.5.5,0,0,1,.517.855l-1.095.69,2.652-1.531a.5.5,0,0,1,.524.852l-9.527,6.212,10.825-6.249a.5.5,0,0,1,.524.85l-12.159,7.98L34.9,12.765a.5.5,0,0,1,.526.85L21.5,22.789l14.855-8.575a.5.5,0,0,1,.517.855l-9,5.7,9.532-5.5a.5.5,0,0,1,.521.853L24.771,24.583l13.917-8.035a.5.5,0,0,1,.512.858l-1.865,1.149,2.131-1.23a.5.5,0,0,1,.514.857l-7.588,4.731,8.027-4.635a.5.5,0,1,1,.513.859L36.484,21.88l4.778-2.758a.5.5,0,1,1,.515.857L30.574,27l11.772-6.8a.5.5,0,0,1,.51.859l-2.411,1.476,2.686-1.55a.5.5,0,1,1,.515.857l-13.262,8.32,13.84-7.99a.5.5,0,0,1,.511.858l-6.719,4.132,6.659-3.844a.5.5,0,0,1,.518.855L26.843,35.857,44.72,25.536a.5.5,0,0,1,.518.855L26.685,38.207,44.72,27.8a.5.5,0,0,1,.516.855l-16.043,10.1L44.72,29.8a.5.5,0,0,1,.515.856L30.616,39.815l14.1-8.142a.5.5,0,0,1,.517.855L28.409,43.163,44.72,33.747a.5.5,0,0,1,.514.857L33.1,42.156l11.62-6.709a.5.5,0,1,1,.514.858L33.748,43.46,44.72,37.126a.5.5,0,0,1,.518.854L30.967,47.071,44.72,39.132a.5.5,0,0,1,.516.855l-8.481,5.334,7.965-4.6a.5.5,0,0,1,.513.857l-2.317,1.44,1.8-1.042a.5.5,0,0,1,.524.851L34.48,49.9l10.24-5.911a.5.5,0,0,1,.531.846L34.994,51.828l9.726-5.614a.5.5,0,0,1,.527.849l-5.63,3.755,5.1-2.945a.5.5,0,0,1,.542.838L38.488,53.6,44.72,50a.5.5,0,0,1,.529.847l-.84.567.311-.179a.5.5,0,0,1,.55.832l-3.1,2.325,2.545-1.469a.5.5,0,0,1,.585.8l-2.7,2.444,2.123-1.226a.5.5,0,0,1,.652.73l-1.23,1.666.514-.3a.5.5,0,1,1,.5.865l-2.593,1.5a.5.5,0,0,1-.652-.729l1.231-1.666-4.15,2.4a.5.5,0,0,1-.585-.8l2.708-2.443L35.492,59.4a.5.5,0,0,1-.55-.832l3.1-2.324L32.569,59.4a.5.5,0,0,1-.529-.846l.84-.568L30.43,59.4a.5.5,0,0,1-.542-.838l6.773-4.884L26.749,59.4a.5.5,0,0,1-.527-.848L31.853,54.8l-7.978,4.6a.5.5,0,0,1-.531-.845L33.6,51.568,20.03,59.4a.5.5,0,0,1-.524-.85l10.763-7.075L16.541,59.4a.5.5,0,0,1-.25.07Z" fill="#fef9f9"></path>
    <path id="Pfad_237" data-name="Pfad 237" d="M35.69,23.47a.5.5,0,0,1-.325-.88l.869-.744-2.092,1.208a.5.5,0,0,1-.583-.806l2.027-1.81-2.279,1.315a.5.5,0,0,1-.578-.81L34.3,19.578l-1.015.586a.5.5,0,0,1-.571-.815l.44-.371a.5.5,0,0,1-.481-.83l1.239-1.306-.627.361a.5.5,0,0,1-.62-.768l.571-.63a.5.5,0,0,1-.623-.727l.579-.909a.5.5,0,0,1-.653-.533l.193-1.621a.481.481,0,0,1-.13-.149.5.5,0,0,1,.184-.682l.265-.153a.5.5,0,0,1,.745.492l-.146,1.24.8-.461a.5.5,0,0,1,.672.7l-.566.89.941-.543a.5.5,0,0,1,.62.768l-.564.623.848-.489a.5.5,0,0,1,.612.776l-1.239,1.308,1.718-.992a.5.5,0,0,1,.572.815l-.355.3.569-.328a.5.5,0,0,1,.578.809L37.282,18.3l2-1.157a.5.5,0,0,1,.583.806L37.838,19.76l2.575-1.487a.5.5,0,0,1,.575.813l-.871.746,1.176-.679a.5.5,0,0,1,.6.791l-.6.58.868-.5a.5.5,0,0,1,.7.654l-.509,1.034.95-.548a.5.5,0,0,1,.734.308l.189.734.011-.007a.5.5,0,1,1,.5.865l-.582.336a.5.5,0,0,1-.734-.308l-.189-.734L41.43,23.4a.5.5,0,0,1-.7-.653l.509-1.033L38.318,23.4a.5.5,0,0,1-.6-.791l.6-.581L35.94,23.4a.493.493,0,0,1-.25.07Z" fill="#fef9f9"></path>
    <path id="Pfad_238" data-name="Pfad 238" d="M45.376,13.47A.5.5,0,0,1,45,12.646l1.6-1.876L42.384,13.2a.5.5,0,0,1-.557-.827l.236-.184-.482.278a.5.5,0,0,1-.574-.814l1.559-1.325-1.286.742a.5.5,0,0,1-.594-.8l1.853-1.762-1.259.726a.5.5,0,0,1-.634-.752L42.371,6.4l-1.091.629a.5.5,0,0,1-.676-.694L41.674,4.6l-.394.226a.5.5,0,0,1-.691-.667L41,3.391a.5.5,0,0,1-.459-.59l.151-.818a.49.49,0,0,1-.093-.117.5.5,0,0,1,.184-.682l.265-.153a.5.5,0,0,1,.738.526l-.066.36.213-.123a.5.5,0,0,1,.691.667l-.335.631.6-.345a.5.5,0,0,1,.675.694L42.493,5.179l1.791-1.034a.5.5,0,0,1,.635.751L43.193,6.979l2.489-1.437a.5.5,0,0,1,.594.8L44.424,8.1l2.419-1.4a.5.5,0,0,1,.574.814l-1.563,1.33L47.839,7.7a.5.5,0,0,1,.557.827l-.235.183.436-.251a.5.5,0,0,1,.631.757l-1.6,1.877,2.283-1.318a.5.5,0,0,1,.678.691l-.665,1.1,1.129-.651a.5.5,0,0,1,.739.537l-.112.521.265-.153a.5.5,0,1,1,.5.866L51.2,13.4a.5.5,0,0,1-.739-.537l.112-.52L48.747,13.4a.5.5,0,0,1-.678-.69l.665-1.1L45.626,13.4a.49.49,0,0,1-.25.07Z" fill="#888"></path>
    <path id="Pfad_239" data-name="Pfad 239" d="M53.734,46.934c-.214-11.31.518-22.86-.319-34.086.016-.043.007-.079-.051-.1C49.3,8.917,43.71-.244,37.829.471,30.924.546,24.008.34,17.11.472c-4.72.619-2.266,6.934-2.844,10.182-2.841.116-8.472-1.053-7.99,3.406.016,14.327-.024,28.66,0,42.984.14,4.672,18.873,1.331,23.143,2.285,4.868-.3,10,.622,14.76-.347,2.986-1.94,1.009-6.442,1.545-9.454C48.4,49.221,53.191,50.738,53.734,46.934ZM49.406,10.388a27.1,27.1,0,0,1,2.283,2.34c-11.013.318-10.229.9-9.965-10.022ZM43.751,58.446c-9.688.648-19.708.008-29.5.227-3.279.119-7.458.911-6.521-3.869.016-13.958-.025-27.926,0-41.879.456-2.991,4.554-1.139,6.642-1.6a.923.923,0,0,0,1.151,0c5.549.188,11.262-.383,16.75.235C31.935,24.419,31.1,23.927,44.086,23.521,44.14,34.99,45.042,47.217,43.751,58.446ZM35.4,14.334c2.67,2.721,5.476,5.373,8.082,8.145-10.964.286-9.962,1.029-9.746-9.82.564.55,1.107,1.121,1.664,1.675ZM46.734,48.472h-1.01c-.278-8.506.555-17.243-.32-25.65A96.639,96.639,0,0,0,33.7,11.085c-5.659-1.188-12.047-.017-17.963-.42.263-2.844-.559-6.059.374-8.725,7.716-.971,16.28-.4,24.168-.2-.4,12.934-.946,11.792,11.735,11.534.708,10.725.026,21.7.256,32.5.812,3.694-3.244,2.554-5.536,2.7Z" fill="#262626"></path>
  </g>
</svg>
