<?xml version="1.0" encoding="UTF-8"?>
<svg xmlns="http://www.w3.org/2000/svg" width="65.172" height="53.794" viewBox="0 0 65.172 53.794">
  <g id="paper-airplane" transform="translate(-0.308 -5.554)">
    <g id="Gruppe_41" data-name="Gruppe 41" transform="translate(1.286 6.549)">
      <path id="Pfad_335" data-name="Pfad 335" d="M14.7,36.12l.341-.2.217,1.59,2.182-1.26-1.4,3.206,4.756-2.745-3.935,4.793L24,37.378l-6.362,6.1,7.7-4.442-7.216,5.638,8.024-4.632L18.8,46.382,27.3,41.477l-7.955,6.256,8.868-5.12-8.435,6.2,9.166-5.292-8.618,6.659,9.543-5.51-8.938,7.021,9.96-5.75-9.053,6.509,3.271-1.888" transform="translate(0.15 -3.518)" fill="fef9f9" stroke="#fef9f9" stroke-linecap="round" stroke-linejoin="round" stroke-width="1"></path>
      <path id="Pfad_336" data-name="Pfad 336" d="M1.2,27.637,3.37,26.382,1.32,29.391l9.935-5.736L2.311,30.169l14.777-8.531L4.229,31.378l22.865-13.2L5.559,32.216,34.032,15.777,6.936,33.083,41.217,13.291,9.019,34.4,52.083,9.532,10.721,35.468,60.965,6.459,12.781,36.767,64.41,6.958,13.9,37.469,64.727,8.123,15.269,38.334,64.221,10.071,16.814,39.307,63.546,12.327,18.3,40.244,62.9,14.5,19.778,41.174,62.251,16.651,21.709,42.389l39.7-22.92L23.59,43.573,60.585,22.215,25.2,44.589,59.881,24.566l-32.656,21.3L59,27.519,28.728,46.81l29.613-17.1-28.5,17.8,28.01-16.172L30.912,48.186,57.386,32.9,33,49.5,56.473,35.953,34.262,50.3l21.66-12.506L35.761,51.242,55.266,39.98,37.118,52.1,54.673,41.962,38.364,52.882l15.765-9.1L40.437,54.189l12.785-7.382L41.59,54.915l11.129-6.426-10.064,7.1,9.6-5.542-8.3,6.361,7.73-4.462-6.1,5.491,5.383-3.107-4.087,3.923,3.521-2.032" transform="translate(-1.197 -6.459)" fill="fef9f9" stroke="#fef9f9" stroke-linecap="round" stroke-linejoin="round" stroke-width="1"></path>
      <path id="Pfad_337" data-name="Pfad 337" d="M43.281,19.469l6-3.464L15.009,37.53,50.193,17.217,15.669,38.5,47.537,20.1l-29.9,19.639L40.988,26.26,19.072,40.643l17.146-9.9-16.08,10.57,12.534-7.236-10.64,8.429L26.369,40" transform="translate(0.182 -5.506)" fill="fef9f9" stroke="#fef9f9" stroke-linecap="round" stroke-linejoin="round" stroke-width="1"></path>
      <path id="Pfad_338" data-name="Pfad 338" d="M14.706,36.147l.161-.092.267,1.16.825-.476-.352,1.654,1.557-.9-.938,2.445,2.52-1.455-1.8,3.238,3.628-2.1L17.42,42.919l4.373-2.524-3.936,3.614,5.051-2.916-4.463,4.383,4.344-2.508-3.9,3.621,3.714-2.145-3.263,3.271,3.077-1.776-2.348,3.6,2.049-1.182-1.245,3.187.914-.527" transform="translate(0.151 -3.505)" fill="fef9f9" stroke="#fef9f9" stroke-linecap="round" stroke-linejoin="round" stroke-width="1"></path>
    </g>
    <path id="Pfad_339" data-name="Pfad 339" d="M1.267,30.421c4.639,2.957,9.33,5.855,13.978,8.807,8.274,18.025,3.385,21.007,17.116,10.778,4.619,2.887,9.2,5.843,13.828,8.713A3.138,3.138,0,0,0,51.111,57c3.921-12.506,7.522-25.122,11.28-37.678.639-4.114,7.631-16.529-1.81-13.211L12.138,22.872c-2.659,1.5-15.381,2.97-10.871,7.549ZM21.106,49.459q-2.139-5.342-4.276-10.687Q33.514,28.13,50.2,17.456c.431-.574.683.748.66,1.156C42.3,27.191,33.026,35.329,24.242,43.776c-.4.157-.7.464-.525.73-.513,2.816-.749,5.89-1.171,8.76-.529-1.249-.948-2.577-1.441-3.808Zm6.122,3.178c-1.106.783-2.252,1.61-3.356,2.384q.616-4.794,1.23-9.587l6.5,4.094ZM2.555,27.319q27.6-9.553,55.247-19.11c1.895-.576,6.457-3.262,6.159.608Q57.15,31.573,50.333,54.336c-.537,1.964-.846,5.434-3.554,3.086L25.443,43.976Q38.522,31.67,51.625,19.386c.631-.593,1.271-1.359.563-2.225-.827-1.013-2.248-.448-3.159.11C38.044,24.14,27.223,31.279,16.267,38.2c-4.487-2.95-9.224-5.564-13.647-8.6-.831-.608-1.04-1.728-.066-2.281Z" transform="translate(0 0)" fill="#fef9f9"></path>
  </g>
</svg>
