<?xml version="1.0" encoding="UTF-8"?>
<svg xmlns="http://www.w3.org/2000/svg" width="80.065" height="53.794" viewBox="0 0 80.065 53.794">
  <g id="twitter_3_" data-name="twitter (3)" transform="translate(0 -13.136)">
    <path id="Pfad_340" data-name="Pfad 340" d="M80.04,41.442a1.267,1.267,0,0,0-1.861-1.308c-4.271,2.239-8.03,4.208-13.088,3.253a12.25,12.25,0,0,1-2-.578C69,40.635,72.859,30.118,72.36,27.23a2.492,2.492,0,0,0-3.3-2.121,62.113,62.113,0,0,0-6.728,3.117c3.423-5.609,1.233-16.127.134-15.007-5.982,6.032-12.644,12.438-20.575,14.453-.574.142-1.211.318-1.861.518-3.859-6.341-4.778-14.827-19.625-13.842-10.96.729-14.725,10.879-13.9,16.995-.149.53-3.983,1.509-5.62,1.885A1.187,1.187,0,0,0,.037,34.69c.637,2.568,3.309,2.982,5.682,3.56A10.549,10.549,0,0,0,1.71,42.031a1.175,1.175,0,0,0,.775,1.722,10.693,10.693,0,0,0,6.182-.6c2.585,2.722,6.794,3.972,10.828,4.194a27.316,27.316,0,0,0,6.156,9.817c6.208,6.163,15.337,9.546,24.229,9.759,15.048.351,30.185-10.632,30.185-25.362A.422.422,0,0,0,80.04,41.442ZM10.09,24.909c-.287.329-.561.66-.836,1a11.6,11.6,0,0,1,1.46-3.17C10.478,23.448,10.265,24.165,10.09,24.909Zm3.884-3.052c-.112.059-.212.117-.312.176A10.551,10.551,0,0,1,17.4,18.251a24.33,24.33,0,0,1,3.883-.578C18.208,18.215,14.861,19.581,13.974,21.857Zm7.069,23.014c-.076-.224-.138-.448-.2-.672.15.023.313.06.462.071A10.526,10.526,0,0,0,32.919,32.131a1.2,1.2,0,0,0-.524-.848,1.029,1.029,0,0,0,.012-.343c-.036-.177.25-.4.75-.671a8.774,8.774,0,0,1,.287,1.331C34.493,39.628,28.124,44.518,21.043,44.871ZM36.017,23.624a1.247,1.247,0,0,0-.262.129c-.038-.07-.088-.141-.125-.212a10.978,10.978,0,0,0-.737-2.051q.77.938,1.461,1.979C36.242,23.519,36.13,23.577,36.017,23.624Z" fill="#fef9f9"></path>
  </g>
</svg>
